<svg width="162" height="158" viewBox="0 0 162 158" fill="none" xmlns="http://www.w3.org/2000/svg">
<path fill-rule="evenodd" clip-rule="evenodd" d="M80.5173 -6.91463e-06C36.0547 -6.91463e-06 0 36.048 0 80.5173C0 116.092 23.0707 146.273 55.0627 156.92C59.0867 157.665 60.564 155.173 60.564 153.047C60.564 151.127 60.4894 144.784 60.4547 138.056C38.0547 142.927 33.328 128.556 33.328 128.556C29.6653 119.249 24.388 116.775 24.388 116.775C17.0827 111.777 24.9387 111.88 24.9387 111.88C33.024 112.447 37.2813 120.179 37.2813 120.179C44.4627 132.487 56.1173 128.928 60.712 126.871C61.4347 121.667 63.5213 118.113 65.824 116.104C47.94 114.068 29.14 107.164 29.14 76.312C29.14 67.5213 32.2853 60.3387 37.436 54.7C36.6 52.6707 33.844 44.4826 38.216 33.392C38.216 33.392 44.9773 31.228 60.364 41.6453C66.7867 39.8613 73.6747 38.9667 80.5173 38.936C87.36 38.9667 94.2533 39.8613 100.688 41.6453C116.056 31.228 122.808 33.392 122.808 33.392C127.191 44.4826 124.433 52.6707 123.597 54.7C128.76 60.3387 131.884 67.5213 131.884 76.312C131.884 107.237 113.048 114.047 95.1187 116.04C98.0067 118.539 100.58 123.439 100.58 130.951C100.58 141.724 100.487 150.395 100.487 153.047C100.487 155.189 101.936 157.7 106.017 156.909C137.992 146.251 161.033 116.08 161.033 80.5173C161.033 36.048 124.984 -6.91463e-06 80.5173 -6.91463e-06" fill="white"/>
<path d="M30.4961 115.605C30.3187 116.007 29.6894 116.125 29.1161 115.851C28.5321 115.588 28.2041 115.043 28.3934 114.641C28.5667 114.231 29.1974 114.116 29.7801 114.389C30.3654 114.653 30.6987 115.204 30.4961 115.605Z" fill="white"/>
<path d="M33.7574 119.243C33.3734 119.599 32.6228 119.433 32.1134 118.871C31.5868 118.309 31.4881 117.559 31.8774 117.197C32.2734 116.843 33.0014 117.009 33.5294 117.569C34.0561 118.137 34.1587 118.883 33.7574 119.243Z" fill="white"/>
<path d="M36.932 123.88C36.4387 124.223 35.632 123.901 35.1333 123.185C34.64 122.469 34.64 121.611 35.144 121.267C35.644 120.923 36.4387 121.233 36.944 121.943C37.436 122.671 37.436 123.529 36.932 123.88" fill="white"/>
<path d="M41.2813 128.36C40.84 128.847 39.9 128.716 39.212 128.052C38.508 127.403 38.312 126.481 38.7547 125.995C39.2013 125.507 40.1466 125.644 40.84 126.303C41.5386 126.951 41.752 127.879 41.2813 128.36Z" fill="white"/>
<path d="M47.2814 130.961C47.0867 131.592 46.1813 131.879 45.2693 131.611C44.3587 131.335 43.7627 130.596 43.9467 129.959C44.136 129.324 45.0453 129.025 45.964 129.312C46.8733 129.587 47.4707 130.32 47.2814 130.961Z" fill="white"/>
<path d="M53.8706 131.444C53.8933 132.108 53.12 132.659 52.1626 132.671C51.2 132.692 50.4213 132.155 50.4106 131.501C50.4106 130.831 51.1666 130.285 52.1293 130.269C53.0866 130.251 53.8706 130.784 53.8706 131.444Z" fill="white"/>
<path d="M60.0026 130.4C60.1173 131.048 59.452 131.713 58.5013 131.891C57.5666 132.061 56.7013 131.661 56.5826 131.019C56.4666 130.355 57.144 129.689 58.0773 129.517C59.0293 129.352 59.8813 129.741 60.0026 130.4" fill="white"/>
</svg>
