<svg width="162" height="158" viewBox="0 0 162 158" fill="none" xmlns="http://www.w3.org/2000/svg">
<path fill-rule="evenodd" clip-rule="evenodd" d="M81.4786 0.580071C37.016 0.580071 0.961304 36.6281 0.961304 81.0974C0.961304 116.672 24.032 146.853 56.024 157.5C60.048 158.245 61.5253 155.753 61.5253 153.627C61.5253 151.707 61.4507 145.364 61.416 138.636C39.016 143.507 34.2893 129.136 34.2893 129.136C30.6266 119.829 25.3493 117.355 25.3493 117.355C18.044 112.357 25.9 112.46 25.9 112.46C33.9853 113.027 38.2426 120.759 38.2426 120.759C45.424 133.067 57.0786 129.508 61.6733 127.451C62.396 122.247 64.4826 118.693 66.7853 116.684C48.9013 114.648 30.1013 107.744 30.1013 76.892C30.1013 68.1014 33.2466 60.9187 38.3973 55.2801C37.5613 53.2507 34.8053 45.0627 39.1773 33.9721C39.1773 33.9721 45.9386 31.808 61.3253 42.2254C67.748 40.4414 74.636 39.5467 81.4786 39.5161C88.3213 39.5467 95.2147 40.4414 101.649 42.2254C117.017 31.808 123.769 33.9721 123.769 33.9721C128.152 45.0627 125.395 53.2507 124.559 55.2801C129.721 60.9187 132.845 68.1014 132.845 76.892C132.845 107.817 114.009 114.627 96.08 116.62C98.968 119.119 101.541 124.019 101.541 131.531C101.541 142.304 101.448 150.975 101.448 153.627C101.448 155.769 102.897 158.28 106.979 157.489C138.953 146.831 161.995 116.66 161.995 81.0974C161.995 36.6281 125.945 0.580071 81.4786 0.580071" fill="#1B1817"/>
<path d="M31.4574 116.185C31.2801 116.587 30.6507 116.705 30.0774 116.431C29.4934 116.168 29.1654 115.623 29.3547 115.221C29.528 114.811 30.1587 114.696 30.7414 114.969C31.3267 115.233 31.6601 115.784 31.4574 116.185Z" fill="#1B1817"/>
<path d="M34.7187 119.823C34.3347 120.179 33.5841 120.013 33.0747 119.451C32.5481 118.889 32.4494 118.139 32.8387 117.777C33.2347 117.423 33.9627 117.589 34.4907 118.149C35.0174 118.717 35.12 119.463 34.7187 119.823Z" fill="#1B1817"/>
<path d="M37.8933 124.46C37.4 124.803 36.5933 124.481 36.0946 123.765C35.6013 123.049 35.6013 122.191 36.1053 121.847C36.6053 121.503 37.4 121.813 37.9053 122.523C38.3973 123.251 38.3973 124.109 37.8933 124.46" fill="#1B1817"/>
<path d="M42.2426 128.94C41.8013 129.427 40.8613 129.296 40.1733 128.632C39.4693 127.983 39.2733 127.061 39.716 126.575C40.1626 126.087 41.108 126.224 41.8013 126.883C42.5 127.531 42.7133 128.459 42.2426 128.94Z" fill="#1B1817"/>
<path d="M48.2427 131.541C48.048 132.172 47.1427 132.459 46.2307 132.191C45.32 131.915 44.724 131.176 44.908 130.539C45.0973 129.904 46.0066 129.605 46.9253 129.892C47.8346 130.167 48.432 130.9 48.2427 131.541Z" fill="#1B1817"/>
<path d="M54.8319 132.024C54.8546 132.688 54.0813 133.239 53.1239 133.251C52.1613 133.272 51.3826 132.735 51.3719 132.081C51.3719 131.411 52.1279 130.865 53.0906 130.849C54.0479 130.831 54.8319 131.364 54.8319 132.024Z" fill="#1B1817"/>
<path d="M60.9639 130.98C61.0786 131.628 60.4133 132.293 59.4626 132.471C58.5279 132.641 57.6626 132.241 57.5439 131.599C57.4279 130.935 58.1053 130.269 59.0386 130.097C59.9906 129.932 60.8426 130.321 60.9639 130.98" fill="#1B1817"/>
</svg>
