<svg width="563" height="79" viewBox="0 0 563 79" fill="none" xmlns="http://www.w3.org/2000/svg">
<path d="M25.92 77.4H0L16.2 1.2H42.24L25.92 77.4Z" fill="#001529"/>
<path d="M44.6606 25.8C47.6206 25.16 50.2206 24.44 52.4606 23.64C54.7006 22.84 56.7406 21.84 58.5806 20.64C60.5006 19.44 62.3006 17.96 63.9806 16.2C65.7406 14.44 67.6206 12.28 69.6206 9.72001H81.9806L78.5006 25.8H87.8606L86.3006 33.84H76.8206L71.9006 57.24C71.5006 59.08 71.1806 60.72 70.9406 62.16C70.7006 63.6 70.5806 64.72 70.5806 65.52C70.5806 67.12 71.1406 68.12 72.2606 68.52C73.4606 68.92 75.6606 69.12 78.8606 69.12L77.0606 77.4C76.5006 77.56 75.6206 77.68 74.4206 77.76C73.3006 77.84 72.0206 77.92 70.5806 78C69.2206 78.16 67.7806 78.24 66.2606 78.24C64.8206 78.32 63.5406 78.36 62.4206 78.36C60.4206 78.36 58.4606 78.2 56.5406 77.88C54.6206 77.64 52.9006 77.12 51.3806 76.32C49.8606 75.44 48.6206 74.2 47.6606 72.6C46.7806 71 46.3406 68.84 46.3406 66.12C46.3406 65.16 46.3806 63.96 46.4606 62.52C46.6206 61.08 46.9006 59.48 47.3006 57.72L52.3406 33.84H42.9806L44.6606 25.8Z" fill="#001529"/>
<path d="M111.238 53.28C110.918 55.04 110.678 56.72 110.518 58.32C110.438 59.92 110.398 61.36 110.398 62.64C110.398 63.36 110.438 64.16 110.518 65.04C110.598 65.92 110.758 66.76 110.998 67.56C111.318 68.28 111.718 68.92 112.198 69.48C112.758 69.96 113.518 70.2 114.478 70.2C115.198 70.2 115.998 69.96 116.878 69.48C117.838 69 118.758 68.32 119.638 67.44C120.598 66.56 121.478 65.48 122.278 64.2C123.158 62.92 123.838 61.48 124.318 59.88H143.998L140.878 72.72C139.278 73.76 137.438 74.64 135.358 75.36C133.278 76.08 131.078 76.68 128.758 77.16C126.438 77.56 124.078 77.84 121.678 78C119.278 78.24 116.998 78.36 114.838 78.36C110.838 78.36 107.118 78 103.678 77.28C100.238 76.56 97.2381 75.32 94.6781 73.56C92.1181 71.8 90.0781 69.48 88.5581 66.6C87.1181 63.64 86.3981 60 86.3981 55.68C86.3981 51.76 86.9981 47.92 88.1981 44.16C89.4781 40.4 91.5581 37.08 94.4381 34.2C97.3981 31.24 101.318 28.88 106.198 27.12C111.158 25.36 117.318 24.48 124.678 24.48C132.678 24.48 138.678 25.72 142.678 28.2C146.758 30.68 148.798 34.56 148.798 39.84C148.798 42 148.478 44.36 147.838 46.92C147.198 49.4 146.238 51.52 144.958 53.28H111.238ZM127.198 39C127.198 36.52 126.798 34.84 125.998 33.96C125.198 33.08 124.238 32.64 123.118 32.64C121.838 32.64 120.638 33.08 119.518 33.96C118.478 34.76 117.518 35.88 116.638 37.32C115.758 38.68 114.958 40.28 114.238 42.12C113.518 43.88 112.918 45.76 112.438 47.76H126.118C126.278 46.8 126.438 45.8 126.598 44.76C126.758 43.88 126.878 42.92 126.958 41.88C127.118 40.84 127.198 39.88 127.198 39Z" fill="#001529"/>
<path d="M160.423 25.8H179.983L181.783 34.8H182.623C184.463 31.92 186.823 29.48 189.703 27.48C192.583 25.48 196.383 24.48 201.103 24.48C201.423 24.48 201.903 24.52 202.543 24.6C203.263 24.6 204.023 24.72 204.823 24.96C205.703 25.12 206.583 25.4 207.463 25.8C208.423 26.12 209.343 26.6 210.223 27.24L204.943 51.96H191.863C191.703 47 191.263 43.56 190.543 41.64C189.823 39.64 188.663 38.64 187.063 38.64C186.263 38.64 185.383 38.84 184.423 39.24C183.543 39.56 182.623 40.32 181.663 41.52L173.983 77.4H149.503L160.423 25.8Z" fill="#001529"/>
<path d="M247.231 44.52C249.631 44.52 251.631 43.52 253.231 41.52C254.911 39.52 256.271 37.08 257.311 34.2C258.431 31.32 259.231 28.32 259.711 25.2C260.191 22.08 260.431 19.36 260.431 17.04C260.431 14.88 260.071 13.08 259.351 11.64C258.631 10.12 257.071 9.36 254.671 9.36H249.271L241.711 44.52H247.231ZM240.031 52.2L234.631 77.4H208.711L224.911 1.2H252.631C257.191 1.2 261.351 1.44 265.111 1.92001C268.871 2.4 272.111 3.36 274.831 4.8C277.551 6.24 279.671 8.32 281.191 11.04C282.711 13.68 283.471 17.24 283.471 21.72C283.471 25.88 282.791 29.84 281.431 33.6C280.151 37.28 278.031 40.52 275.071 43.32C272.191 46.04 268.431 48.2 263.791 49.8C259.151 51.4 253.511 52.2 246.871 52.2H240.031Z" fill="#0083FF"/>
<path d="M344.097 77.4H316.017L314.337 58.32H292.137L283.617 77.4H271.977L307.377 1.2H335.817L344.097 77.4ZM296.097 49.56H313.497L310.737 16.92L296.097 49.56Z" fill="#0083FF"/>
<path d="M424.565 19.32C424.565 24.04 423.245 28.4 420.605 32.4C417.965 36.4 413.605 39.44 407.525 41.52L421.445 77.4H394.685L384.125 44.16H382.805L375.725 77.4H349.805L366.005 1.2H397.565C401.245 1.2 404.725 1.44 408.005 1.92001C411.285 2.32001 414.125 3.2 416.525 4.56C419.005 5.84 420.965 7.68 422.405 10.08C423.845 12.4 424.565 15.48 424.565 19.32ZM390.005 36.48C392.085 36.48 393.845 35.8 395.285 34.44C396.805 33 398.005 31.28 398.885 29.28C399.845 27.28 400.525 25.16 400.925 22.92C401.325 20.6 401.525 18.6 401.525 16.92C401.525 14.84 401.165 13.08 400.445 11.64C399.725 10.12 398.165 9.36 395.765 9.36H390.365L384.365 36.48H390.005Z" fill="#0083FF"/>
<path d="M473.022 23.28C473.262 22.08 473.382 20.44 473.382 18.36C473.382 17.16 473.302 16 473.142 14.88C472.982 13.68 472.702 12.64 472.302 11.76C471.902 10.8 471.302 10.08 470.502 9.60001C469.702 9.04 468.662 8.76 467.382 8.76C465.942 8.76 464.622 9.08 463.422 9.72001C462.222 10.36 461.142 11.2 460.182 12.24C459.302 13.2 458.582 14.36 458.022 15.72C457.542 17 457.302 18.36 457.302 19.8C457.302 21.88 457.822 23.48 458.862 24.6C459.982 25.72 461.422 26.64 463.182 27.36C464.942 28.08 466.942 28.68 469.182 29.16C471.422 29.64 473.742 30.2 476.142 30.84C478.142 31.4 480.142 32.12 482.142 33C484.142 33.88 485.902 35.08 487.422 36.6C489.022 38.04 490.302 39.96 491.262 42.36C492.222 44.68 492.702 47.6 492.702 51.12C492.702 56.16 491.702 60.4 489.702 63.84C487.702 67.28 484.942 70.08 481.422 72.24C477.902 74.4 473.702 75.96 468.822 76.92C464.022 77.88 458.782 78.36 453.102 78.36C447.342 78.36 442.622 78 438.942 77.28C435.342 76.48 432.502 75.64 430.422 74.76C427.942 73.72 426.102 72.52 424.902 71.16L428.982 54.72H450.102C450.022 55.44 449.942 56.44 449.862 57.72C449.782 58.92 449.742 59.88 449.742 60.6C449.742 61.56 449.862 62.56 450.102 63.6C450.342 64.64 450.702 65.6 451.182 66.48C451.742 67.36 452.502 68.08 453.462 68.64C454.422 69.2 455.622 69.48 457.062 69.48C458.662 69.48 460.062 69.12 461.262 68.4C462.542 67.68 463.582 66.8 464.382 65.76C465.262 64.64 465.902 63.44 466.302 62.16C466.782 60.8 467.022 59.48 467.022 58.2C467.022 56.44 466.582 54.96 465.702 53.76C464.902 52.56 463.782 51.56 462.342 50.76C460.902 49.88 459.222 49.16 457.302 48.6C455.462 47.96 453.542 47.32 451.542 46.68C449.622 46.12 447.582 45.44 445.422 44.64C443.342 43.84 441.422 42.72 439.662 41.28C437.902 39.84 436.422 38.04 435.222 35.88C434.102 33.64 433.542 30.8 433.542 27.36C433.542 22.24 434.822 17.96 437.382 14.52C440.022 11 443.302 8.16 447.222 6C451.222 3.84 455.582 2.32 460.302 1.44C465.022 0.48 469.502 0 473.742 0C479.342 0 484.142 0.680003 488.142 2.04C492.222 3.32 495.302 4.84 497.382 6.6L492.942 23.28H473.022Z" fill="#0083FF"/>
<path d="M512.372 1.2H562.892L560.972 10.32H536.492L531.452 33.48H551.972L550.052 42.48H529.532L524.012 68.16H548.492L546.692 77.4H496.172L512.372 1.2Z" fill="#0083FF"/>
</svg>
